{
    "asset" : {
        "generator" : "Khronos glTF Blender I/O v3.2.43",
        "version" : "2.0"
    },
    "scene" : 0,
    "scenes" : [
        {
            "name" : "Scene",
            "nodes" : [
                0,
                1,
                2,
                3,
                4
            ]
        }
    ],
    "nodes" : [
        {
            "mesh" : 0,
            "name" : "Cube",
            "rotation" : [
                -0.9999781847000122,
                0.0007500913925468922,
                -0.006564263254404068,
                1.8841008568415418e-05
            ],
            "scale" : [
                -10.047951698303223,
                -2.0383059978485107,
                -1.7595679759979248
            ],
            "translation" : [
                0,
                2.116472005844116,
                0.5079532861709595
            ]
        },
        {
            "mesh" : 1,
            "name" : "\u7acb\u65b9\u4f53",
            "scale" : [
                5.714831829071045,
                2.02073335647583,
                1.0392953157424927
            ],
            "translation" : [
                0,
                2.116472005844116,
                -1.2340281009674072
            ]
        },
        {
            "mesh" : 2,
            "name" : "\u7acb\u65b9\u4f53.001",
            "scale" : [
                9.565521240234375,
                2.02073335647583,
                0.7996330261230469
            ],
            "translation" : [
                -0.019596965983510017,
                2.116472005844116,
                -3.0173518657684326
            ]
        },
        {
            "mesh" : 3,
            "name" : "\u5e73\u9762",
            "scale" : [
                3.175891876220703,
                1,
                2.957770824432373
            ],
            "translation" : [
                0,
                4.20911979675293,
                -0.7880659103393555
            ]
        },
        {
            "mesh" : 4,
            "name" : "\u6587\u672c",
            "rotation" : [
                0,
                -0.7071068286895752,
                -0.7071068286895752,
                0
            ],
            "scale" : [
                -1,
                -0.11689651012420654,
                -1
            ],
            "translation" : [
                -1.243862509727478,
                3.0492289066314697,
                2.6771352291107178
            ]
        }
    ],
    "materials" : [
        {
            "doubleSided" : true,
            "name" : "Material",
            "pbrMetallicRoughness" : {
                "baseColorFactor" : [
                    0.9734446406364441,
                    0.791297435760498,
                    0.4735316038131714,
                    1
                ],
                "metallicFactor" : 0,
                "roughnessFactor" : 0.4000000059604645
            }
        },
        {
            "doubleSided" : true,
            "name" : "\u6750\u8d28.001",
            "pbrMetallicRoughness" : {
                "baseColorFactor" : [
                    0.9734446406364441,
                    0.791297435760498,
                    0.4735316038131714,
                    1
                ],
                "metallicFactor" : 0,
                "roughnessFactor" : 0.5
            }
        },
        {
            "doubleSided" : true,
            "name" : "\u6750\u8d28",
            "pbrMetallicRoughness" : {
                "baseColorFactor" : [
                    0.9734446406364441,
                    0.791297435760498,
                    0.4735316038131714,
                    1
                ],
                "metallicFactor" : 0,
                "roughnessFactor" : 0.5
            }
        },
        {
            "doubleSided" : true,
            "name" : "\u56fe\u4e66\u9986\u5c4b\u9876",
            "pbrMetallicRoughness" : {
                "baseColorFactor" : [
                    0.10125476866960526,
                    0.14347651600837708,
                    0.28704285621643066,
                    1
                ],
                "metallicFactor" : 0,
                "roughnessFactor" : 0.5
            }
        },
        {
            "doubleSided" : true,
            "name" : "\u6750\u8d28.002",
            "pbrMetallicRoughness" : {
                "baseColorFactor" : [
                    1,
                    0.6795420050621033,
                    0,
                    1
                ],
                "metallicFactor" : 0,
                "roughnessFactor" : 0.5
            }
        }
    ],
    "meshes" : [
        {
            "name" : "Cube",
            "primitives" : [
                {
                    "attributes" : {
                        "POSITION" : 0,
                        "NORMAL" : 1,
                        "TEXCOORD_0" : 2
                    },
                    "indices" : 3,
                    "material" : 0
                }
            ]
        },
        {
            "name" : "\u7acb\u65b9\u4f53",
            "primitives" : [
                {
                    "attributes" : {
                        "POSITION" : 4,
                        "NORMAL" : 5,
                        "TEXCOORD_0" : 6
                    },
                    "indices" : 7,
                    "material" : 1
                }
            ]
        },
        {
            "name" : "\u7acb\u65b9\u4f53.001",
            "primitives" : [
                {
                    "attributes" : {
                        "POSITION" : 8,
                        "NORMAL" : 9,
                        "TEXCOORD_0" : 10
                    },
                    "indices" : 7,
                    "material" : 2
                }
            ]
        },
        {
            "name" : "\u5e73\u9762",
            "primitives" : [
                {
                    "attributes" : {
                        "POSITION" : 11,
                        "NORMAL" : 12,
                        "TEXCOORD_0" : 13
                    },
                    "indices" : 14,
                    "material" : 3
                }
            ]
        },
        {
            "name" : "\u6587\u672c",
            "primitives" : [
                {
                    "attributes" : {
                        "POSITION" : 15,
                        "NORMAL" : 16,
                        "TEXCOORD_0" : 17
                    },
                    "indices" : 18,
                    "material" : 4
                }
            ]
        }
    ],
    "accessors" : [
        {
            "bufferView" : 0,
            "componentType" : 5126,
            "count" : 504,
            "max" : [
                1.060594916343689,
                0.9999999403953552,
                2.340181589126587
            ],
            "min" : [
                -0.9930078387260437,
                -0.9999999403953552,
                -0.9973170757293701
            ],
            "type" : "VEC3"
        },
        {
            "bufferView" : 1,
            "componentType" : 5126,
            "count" : 504,
            "type" : "VEC3"
        },
        {
            "bufferView" : 2,
            "componentType" : 5126,
            "count" : 504,
            "type" : "VEC2"
        },
        {
            "bufferView" : 3,
            "componentType" : 5123,
            "count" : 780,
            "type" : "SCALAR"
        },
        {
            "bufferView" : 4,
            "componentType" : 5126,
            "count" : 24,
            "max" : [
                1,
                1,
                1
            ],
            "min" : [
                -1,
                -1,
                -1
            ],
            "type" : "VEC3"
        },
        {
            "bufferView" : 5,
            "componentType" : 5126,
            "count" : 24,
            "type" : "VEC3"
        },
        {
            "bufferView" : 6,
            "componentType" : 5126,
            "count" : 24,
            "type" : "VEC2"
        },
        {
            "bufferView" : 7,
            "componentType" : 5123,
            "count" : 36,
            "type" : "SCALAR"
        },
        {
            "bufferView" : 8,
            "componentType" : 5126,
            "count" : 24,
            "max" : [
                1,
                1,
                1
            ],
            "min" : [
                -1,
                -1,
                -1
            ],
            "type" : "VEC3"
        },
        {
            "bufferView" : 9,
            "componentType" : 5126,
            "count" : 24,
            "type" : "VEC3"
        },
        {
            "bufferView" : 10,
            "componentType" : 5126,
            "count" : 24,
            "type" : "VEC2"
        },
        {
            "bufferView" : 11,
            "componentType" : 5126,
            "count" : 24,
            "max" : [
                1,
                1.3064855337142944,
                1
            ],
            "min" : [
                -1,
                0,
                -1
            ],
            "type" : "VEC3"
        },
        {
            "bufferView" : 12,
            "componentType" : 5126,
            "count" : 24,
            "type" : "VEC3"
        },
        {
            "bufferView" : 13,
            "componentType" : 5126,
            "count" : 24,
            "type" : "VEC2"
        },
        {
            "bufferView" : 14,
            "componentType" : 5123,
            "count" : 36,
            "type" : "SCALAR"
        },
        {
            "bufferView" : 15,
            "componentType" : 5126,
            "count" : 469,
            "max" : [
                2.359848737716675,
                0,
                0.10786767303943634
            ],
            "min" : [
                0.0584120936691761,
                0,
                -0.6655084490776062
            ],
            "type" : "VEC3"
        },
        {
            "bufferView" : 16,
            "componentType" : 5126,
            "count" : 469,
            "type" : "VEC3"
        },
        {
            "bufferView" : 17,
            "componentType" : 5126,
            "count" : 469,
            "type" : "VEC2"
        },
        {
            "bufferView" : 18,
            "componentType" : 5123,
            "count" : 1092,
            "type" : "SCALAR"
        }
    ],
    "bufferViews" : [
        {
            "buffer" : 0,
            "byteLength" : 6048,
            "byteOffset" : 0
        },
        {
            "buffer" : 0,
            "byteLength" : 6048,
            "byteOffset" : 6048
        },
        {
            "buffer" : 0,
            "byteLength" : 4032,
            "byteOffset" : 12096
        },
        {
            "buffer" : 0,
            "byteLength" : 1560,
            "byteOffset" : 16128
        },
        {
            "buffer" : 0,
            "byteLength" : 288,
            "byteOffset" : 17688
        },
        {
            "buffer" : 0,
            "byteLength" : 288,
            "byteOffset" : 17976
        },
        {
            "buffer" : 0,
            "byteLength" : 192,
            "byteOffset" : 18264
        },
        {
            "buffer" : 0,
            "byteLength" : 72,
            "byteOffset" : 18456
        },
        {
            "buffer" : 0,
            "byteLength" : 288,
            "byteOffset" : 18528
        },
        {
            "buffer" : 0,
            "byteLength" : 288,
            "byteOffset" : 18816
        },
        {
            "buffer" : 0,
            "byteLength" : 192,
            "byteOffset" : 19104
        },
        {
            "buffer" : 0,
            "byteLength" : 288,
            "byteOffset" : 19296
        },
        {
            "buffer" : 0,
            "byteLength" : 288,
            "byteOffset" : 19584
        },
        {
            "buffer" : 0,
            "byteLength" : 192,
            "byteOffset" : 19872
        },
        {
            "buffer" : 0,
            "byteLength" : 72,
            "byteOffset" : 20064
        },
        {
            "buffer" : 0,
            "byteLength" : 5628,
            "byteOffset" : 20136
        },
        {
            "buffer" : 0,
            "byteLength" : 5628,
            "byteOffset" : 25764
        },
        {
            "buffer" : 0,
            "byteLength" : 3752,
            "byteOffset" : 31392
        },
        {
            "buffer" : 0,
            "byteLength" : 2184,
            "byteOffset" : 35144
        }
    ],
    "buffers" : [
        {
            "byteLength" : 37328,
            "uri" : "\u56fe\u4e66\u99861.bin"
        }
    ]
}
